<?xml version="1.0" standalone="no"?>
<!DOCTYPE svg PUBLIC "-//W3C//DTD SVG 20010904//EN"
 "http://www.w3.org/TR/2001/REC-SVG-20010904/DTD/svg10.dtd">
<svg version="1.0" xmlns="http://www.w3.org/2000/svg"
 width="600.000000pt" height="600.000000pt" viewBox="0 0 600.000000 600.000000"
 preserveAspectRatio="xMidYMid meet">

<g transform="translate(0.000000,600.000000) scale(0.100000,-0.100000)"
fill="#000000" stroke="none">
<path d="M2755 5444 c-552 -36 -1070 -160 -1509 -363 l-89 -41 -141 0 -141 0
-97 -66 -98 -66 0 -1872 0 -1873 58 -40 c159 -111 444 -257 687 -352 518 -203
998 -294 1550 -294 486 1 898 62 1345 199 332 102 751 303 957 457 l42 32 1
1871 0 1871 -57 40 c-135 94 -133 93 -294 93 l-145 0 -104 46 c-390 171 -850
291 -1300 339 -143 15 -548 26 -665 19z m-80 -468 c49 -21 59 -47 66 -176 3
-63 9 -125 14 -137 6 -18 2 -25 -20 -35 -25 -11 -29 -10 -43 10 l-14 22 -30
-21 c-40 -29 -106 -36 -146 -15 -40 21 -52 44 -52 98 1 78 48 112 153 110 l70
-2 -6 38 c-9 51 -31 65 -92 58 -27 -3 -62 -9 -77 -12 -25 -6 -28 -3 -28 19 0
19 8 28 38 40 47 20 123 21 167 3z m824 3 c25 -9 31 -16 31 -41 0 -25 -3 -29
-17 -23 -34 14 -110 17 -132 6 -24 -13 -28 -43 -7 -60 7 -6 39 -20 72 -31 79
-27 104 -53 104 -105 0 -73 -53 -115 -145 -115 -68 0 -115 23 -115 56 0 23 3
25 23 19 45 -14 124 -17 146 -6 12 7 21 21 21 36 0 27 -28 46 -97 64 -78 21
-117 102 -77 160 32 46 123 64 193 40z m-619 -138 l36 -134 23 99 c42 186 37
176 79 172 l37 -3 31 -125 c18 -69 33 -127 34 -130 1 -3 16 50 34 116 19 67
37 127 40 133 4 6 20 11 37 11 40 0 38 -13 -24 -200 -51 -153 -52 -155 -83
-158 -17 -2 -35 3 -40 10 -6 7 -23 67 -39 133 l-28 120 -24 -95 c-44 -182 -39
-172 -81 -168 l-36 3 -53 169 c-28 93 -50 174 -47 178 3 5 20 8 37 6 l32 -3
35 -134z m704 -307 c38 -14 1 -160 -52 -207 -30 -27 -34 -7 -11 53 11 29 19
65 17 79 -3 25 -5 26 -80 26 -42 0 -80 3 -84 7 -4 4 13 17 37 28 43 19 139 27
173 14z m-1096 -53 c273 -137 600 -159 899 -59 73 24 97 28 106 19 16 -16 -15
-40 -108 -86 -131 -64 -210 -80 -390 -80 -184 0 -257 16 -393 84 -94 47 -202
125 -202 146 0 20 0 20 88 -24z m-325 -622 c104 -28 103 -199 -1 -230 -85 -25
-152 26 -152 116 0 73 33 111 110 124 3 1 22 -4 43 -10z m1100 0 c46 -12 77
-57 77 -112 0 -43 -22 -91 -47 -106 -15 -9 -13 -11 15 -17 26 -5 32 -11 32
-31 0 -23 -3 -25 -32 -19 -18 3 -44 15 -58 25 -14 10 -42 23 -62 30 -55 18
-78 53 -78 116 0 73 33 111 110 124 3 1 22 -4 43 -10z m890 1 c11 0 17 -8 17
-25 0 -23 -4 -25 -45 -25 -55 0 -58 -14 -8 -35 52 -22 73 -44 73 -75 0 -51
-62 -87 -130 -75 -34 6 -40 11 -40 31 0 22 4 24 50 24 28 0 50 4 50 10 0 5
-21 20 -47 32 -61 29 -77 65 -47 105 22 30 57 44 89 37 11 -2 28 -4 38 -4z
m-2493 -28 c0 -26 -3 -28 -29 -24 -49 7 -71 -12 -71 -63 0 -51 16 -65 74 -65
31 0 36 -3 36 -24 0 -19 -6 -24 -36 -29 -91 -15 -144 29 -144 120 0 47 4 59
29 84 26 25 37 29 85 29 55 0 56 -1 56 -28z m170 -62 l0 -90 45 0 c41 0 45 -2
45 -25 0 -25 -1 -25 -80 -25 l-80 0 0 115 0 115 35 0 35 0 0 -90z m582 3 c3
-84 4 -88 27 -91 34 -5 41 12 41 101 l0 77 30 0 30 0 0 -91 c0 -50 -4 -99 -10
-109 -13 -25 -73 -43 -115 -36 -58 11 -75 45 -75 147 l0 89 35 0 34 0 3 -87z
m401 67 c57 -45 57 -145 0 -189 -20 -17 -40 -21 -94 -21 l-69 0 0 115 0 115
69 0 c53 0 74 -4 94 -20z m699 -67 c3 -84 4 -88 27 -91 34 -5 41 12 41 101 l0
77 30 0 30 0 0 -91 c0 -50 -4 -99 -10 -109 -13 -25 -73 -43 -115 -36 -58 11
-75 45 -75 147 l0 89 35 0 34 0 3 -87z m408 62 c0 -23 -3 -25 -50 -25 -43 0
-50 -3 -50 -20 0 -17 7 -20 40 -20 36 0 40 -2 40 -25 0 -22 -4 -25 -40 -25
-33 0 -40 -3 -40 -20 0 -17 7 -20 50 -20 47 0 50 -2 50 -25 0 -25 -1 -25 -85
-25 l-85 0 0 115 0 115 85 0 c84 0 85 0 85 -25z m540 0 c0 -22 -4 -25 -35 -25
l-35 0 0 -90 0 -90 -30 0 -30 0 0 90 0 90 -35 0 c-31 0 -35 3 -35 25 l0 25
100 0 100 0 0 -25z m260 -470 c0 -13 -198 -15 -1720 -15 -1522 0 -1720 2
-1720 15 0 13 198 15 1720 15 1522 0 1720 -2 1720 -15z m-2050 -416 c0 -142 1
-151 20 -156 25 -7 28 -58 4 -67 -34 -13 -75 -6 -99 19 -25 24 -25 27 -25 190
l0 165 50 0 50 0 0 -151z m940 -34 l0 -185 -40 0 c-22 0 -40 5 -40 10 0 6 -14
3 -31 -6 -40 -20 -88 -12 -119 21 -32 34 -40 136 -15 184 22 43 77 67 122 53
l33 -10 0 59 0 59 45 0 45 0 0 -185z m-1092 123 l3 -38 -56 0 c-72 0 -105 -28
-105 -89 0 -83 40 -116 126 -104 l45 6 -3 -39 c-3 -37 -5 -39 -45 -48 -52 -11
-119 -1 -159 23 -43 26 -64 77 -64 153 0 76 21 123 70 156 29 20 45 22 110 20
l75 -3 3 -37z m434 -62 c33 -23 49 -53 54 -103 10 -95 -53 -158 -150 -150 -42
4 -55 10 -84 42 -33 36 -34 40 -30 101 4 71 28 107 82 124 38 11 102 4 128
-14z m198 -87 c0 -98 0 -100 23 -97 21 3 22 8 25 101 l3 97 49 0 50 0 0 -130
0 -130 -39 0 c-22 0 -41 5 -43 11 -3 8 -14 7 -35 -5 -43 -22 -75 -20 -107 5
-25 20 -26 23 -26 135 l0 114 50 0 50 0 0 -101z m-219 -279 c22 -12 26 -59 7
-78 -7 -7 -24 -12 -38 -12 -33 0 -50 17 -50 52 0 40 40 59 81 38z m370 0 c22
-12 26 -59 7 -78 -7 -7 -24 -12 -38 -12 -33 0 -50 17 -50 52 0 40 40 59 81 38z
m-1515 -46 c60 -29 81 -102 48 -165 -18 -36 -67 -59 -124 -59 l-40 0 0 -55 0
-55 -45 0 -45 0 0 175 0 175 86 0 c59 0 97 -5 120 -16z m964 -39 c0 -33 2 -35
35 -35 33 0 35 -2 35 -35 0 -33 -2 -35 -35 -35 l-36 0 3 -57 c3 -57 3 -58 36
-61 29 -3 32 -6 32 -37 0 -31 -3 -35 -35 -41 -44 -8 -80 1 -105 26 -16 16 -20
34 -20 95 0 68 -2 75 -20 75 -16 0 -20 7 -20 30 0 20 5 30 15 30 9 0 18 6 20
13 24 67 24 67 60 67 33 0 35 -2 35 -35z m360 0 c0 -33 2 -35 35 -35 33 0 35
-2 35 -35 0 -33 -2 -35 -35 -35 l-36 0 3 -57 c3 -57 3 -58 36 -61 29 -3 32 -6
32 -37 0 -31 -3 -35 -35 -41 -44 -8 -80 1 -105 26 -16 16 -20 34 -20 95 0 68
-2 75 -20 75 -16 0 -20 7 -20 30 0 20 5 30 15 30 9 0 18 6 20 13 24 67 24 67
60 67 33 0 35 -2 35 -35z m-838 -35 c21 -6 42 -19 48 -30 5 -10 10 -66 10
-125 l0 -106 -52 1 c-29 0 -68 -2 -86 -6 -43 -8 -78 10 -91 48 -21 58 23 111
94 112 36 1 45 5 45 18 0 23 -39 32 -84 20 l-36 -10 0 34 c0 29 4 35 28 40 15
3 32 7 37 9 20 7 51 5 87 -5z m1300 -14 c76 -54 74 -187 -4 -236 -26 -17 -45
-20 -87 -17 -48 3 -59 9 -89 42 -33 36 -34 40 -30 101 4 71 28 107 82 124 38
11 102 4 128 -14z m348 -2 c11 -11 16 -44 19 -129 l3 -115 -51 0 -51 0 0 89
c0 93 -11 118 -44 105 -13 -5 -16 -23 -16 -100 l0 -94 -50 0 -50 0 0 130 0
130 39 0 c22 0 41 -4 43 -10 2 -6 19 -4 43 5 45 17 92 12 115 -11z m273 -15
c24 -26 28 -38 25 -77 l-3 -47 -72 -3 c-40 -2 -73 -7 -73 -12 0 -19 44 -32 92
-27 48 6 48 6 48 -24 0 -22 -6 -32 -26 -39 -68 -26 -162 -1 -188 49 -24 45
-21 132 6 166 49 63 140 69 191 14z m-2219 15 c6 -15 8 -15 31 0 13 9 36 16
50 16 23 0 25 -4 25 -40 0 -35 -3 -40 -22 -40 -65 -1 -68 -5 -68 -96 l0 -84
-50 0 -50 0 0 130 0 130 39 0 c26 0 41 -5 45 -16z m600 10 c10 -4 16 -18 16
-35 0 -27 -2 -29 -43 -29 -54 0 -67 -13 -67 -67 0 -38 3 -45 27 -54 14 -5 39
-7 55 -4 26 6 28 4 28 -24 0 -25 -6 -34 -26 -41 -61 -24 -144 1 -169 51 -32
60 -12 159 37 193 22 16 111 22 142 10z m376 -124 l0 -130 -50 0 -50 0 0 130
0 130 50 0 50 0 0 -130z m370 0 l0 -130 -50 0 -50 0 0 130 0 130 50 0 50 0 0
-130z m1034 114 c6 -15 8 -15 31 0 13 9 36 16 50 16 23 0 25 -4 25 -40 0 -35
-3 -40 -22 -40 -65 -1 -68 -5 -68 -96 l0 -84 -50 0 -50 0 0 130 0 130 39 0
c26 0 41 -5 45 -16z m-888 -607 l24 -28 0 -325 0 -324 40 0 c26 0 43 -5 46
-14 5 -14 -87 -163 -110 -178 -6 -4 -215 -8 -463 -8 -517 0 -455 -12 -537 103
-56 78 -55 97 4 97 l40 0 0 324 c0 309 1 324 20 349 11 14 30 28 43 30 12 3
213 4 445 3 l424 -1 24 -28z"/>
<path d="M2537 4762 c-50 -55 13 -114 87 -81 27 13 52 60 42 84 -8 23 -108 21
-129 -3z"/>
<path d="M2089 3794 c-7 -9 -13 -31 -13 -49 0 -18 6 -40 13 -49 16 -19 52 -21
69 -4 15 15 16 72 2 99 -13 23 -53 25 -71 3z"/>
<path d="M3189 3794 c-7 -9 -13 -31 -13 -49 0 -18 6 -40 13 -49 16 -19 52 -21
69 -4 15 15 16 72 2 99 -13 23 -53 25 -71 3z"/>
<path d="M2720 3745 c0 -49 3 -65 14 -65 31 0 46 13 52 46 7 41 -16 84 -46 84
-18 0 -20 -7 -20 -65z"/>
<path d="M3462 2918 c-17 -17 -15 -103 3 -118 8 -6 23 -9 35 -5 19 6 21 13 18
68 -3 53 -6 62 -23 65 -11 1 -26 -3 -33 -10z"/>
<path d="M2851 2916 c-18 -22 -10 -107 12 -120 15 -9 21 -7 33 8 19 26 18 91
-2 110 -19 20 -28 20 -43 2z"/>
<path d="M1670 2460 c0 -54 6 -59 54 -40 20 7 26 16 26 40 0 24 -6 33 -26 40
-48 19 -54 14 -54 -40z"/>
<path d="M2190 2311 c0 -24 13 -33 34 -25 27 10 20 44 -9 44 -18 0 -25 -5 -25
-19z"/>
<path d="M3471 2416 c-18 -22 -10 -107 12 -120 15 -9 21 -7 33 8 19 26 18 91
-2 110 -19 20 -28 20 -43 2z"/>
<path d="M4082 2418 c-20 -20 -14 -28 24 -28 29 0 35 3 30 16 -3 9 -6 18 -6
20 0 9 -37 3 -48 -8z"/>
<path d="M2573 1843 c-10 -4 -13 -78 -13 -324 l0 -319 440 0 440 0 0 319 c0
282 -2 320 -16 325 -19 7 -833 7 -851 -1z m536 -140 c55 -32 103 -65 106 -73
7 -17 -5 -27 -112 -87 l-83 -47 0 -88 0 -88 73 43 72 43 5 79 c4 72 7 80 25
80 18 0 20 -8 23 -85 1 -47 -1 -90 -5 -95 -15 -21 -207 -126 -220 -121 -10 4
-13 34 -13 119 l0 113 -60 34 c-59 33 -74 55 -46 66 8 3 39 -9 70 -26 l56 -32
75 43 75 43 -75 44 -74 44 -86 -49 -85 -48 3 -105 2 -104 57 -34 c51 -30 56
-36 47 -54 -10 -18 -13 -18 -77 18 -37 21 -70 42 -74 48 -14 20 -9 244 5 256
20 19 191 118 204 119 6 1 56 -25 112 -56z"/>
<path d="M2490 1145 c0 -3 16 -27 36 -55 l36 -50 441 0 442 0 33 50 c17 27 32
52 32 55 0 3 -229 5 -510 5 -280 0 -510 -2 -510 -5z"/>
</g>
</svg>
