<?xml version="1.0" standalone="no"?>
<!DOCTYPE svg PUBLIC "-//W3C//DTD SVG 20010904//EN"
 "http://www.w3.org/TR/2001/REC-SVG-20010904/DTD/svg10.dtd">
<svg version="1.0" xmlns="http://www.w3.org/2000/svg"
 width="207.000000pt" height="207.000000pt" viewBox="0 0 207.000000 207.000000"
 preserveAspectRatio="xMidYMid meet">

<g transform="translate(0.000000,207.000000) scale(0.100000,-0.100000)"
fill="#000000" stroke="none">
<path d="M1209 1961 c-24 -16 -78 -63 -119 -105 l-75 -76 83 -82 82 -83 65 65
65 65 203 -203 202 -202 -245 -245 -244 -244 24 -27 c49 -52 115 -71 182 -54
37 10 75 43 272 238 125 125 234 241 242 259 17 38 18 101 4 140 -14 37 -526
551 -567 569 -55 24 -123 18 -174 -15z"/>
<path d="M625 1941 c-16 -10 -145 -135 -286 -277 -177 -179 -260 -269 -268
-293 -29 -87 -4 -144 116 -264 l88 -87 80 80 79 80 -64 65 -65 65 205 205 205
205 245 -245 246 -246 26 28 c57 60 72 138 39 208 -23 49 -443 469 -484 484
-46 18 -128 13 -162 -8z"/>
<path d="M771 1529 c-17 -23 -33 -60 -37 -85 -11 -78 11 -114 159 -262 l132
-132 80 80 80 80 -180 180 c-99 99 -185 180 -192 180 -7 0 -26 -18 -42 -41z"/>
<path d="M1340 1300 c-11 -8 -7 -9 15 -4 37 8 45 14 19 14 -10 0 -26 -5 -34
-10z"/>
<path d="M1448 1303 c7 -3 16 -2 19 1 4 3 -2 6 -13 5 -11 0 -14 -3 -6 -6z"/>
<path d="M1480 1296 c0 -2 7 -7 16 -10 8 -3 12 -2 9 4 -6 10 -25 14 -25 6z"/>
<path d="M585 1274 c-42 -21 -462 -442 -480 -480 -21 -44 -19 -117 4 -162 25
-47 504 -524 550 -547 47 -23 118 -22 167 3 21 11 77 59 124 106 l85 86 -80
80 -80 80 -67 -67 -68 -68 -200 200 c-110 110 -200 204 -200 210 0 5 109 119
242 252 l242 242 -20 22 c-50 55 -156 76 -219 43z"/>
<path d="M1299 1273 c-13 -16 -12 -17 4 -4 16 13 21 21 13 21 -2 0 -10 -8 -17
-17z"/>
<path d="M1537 1255 c10 -13 22 -25 27 -25 5 0 -1 11 -14 25 -30 32 -36 32
-13 0z"/>
<path d="M660 1005 l-184 -184 20 -22 c49 -55 151 -75 218 -44 17 8 90 74 161
145 l130 130 -80 80 -80 80 -185 -185z"/>
<path d="M1122 955 c43 -43 79 -77 80 -75 2 3 -33 39 -77 80 l-80 74 77 -79z"/>
<path d="M1697 952 l-77 -78 62 -59 63 -60 -57 60 -58 60 72 72 73 73 90 -87
90 -88 -90 93 c-49 50 -90 92 -90 92 0 0 -35 -35 -78 -78z"/>
<path d="M945 930 l-80 -80 185 -185 c177 -177 185 -184 203 -167 56 50 76
154 44 222 -10 20 -75 93 -145 163 l-127 127 -80 -80z"/>
<path d="M1075 580 c132 -132 242 -240 245 -240 3 0 -103 108 -235 240 -132
132 -242 240 -245 240 -3 0 103 -108 235 -240z"/>
<path d="M1971 784 c0 -11 3 -14 6 -6 3 7 2 16 -1 19 -3 4 -6 -2 -5 -13z"/>
<path d="M799 773 c-13 -16 -12 -17 4 -4 9 7 17 15 17 17 0 8 -8 3 -21 -13z"/>
<path d="M1535 528 l-200 -203 203 200 c111 110 202 201 202 202 0 8 -19 -11
-205 -199z"/>
<path d="M1956 663 c-6 -14 -5 -15 5 -6 7 7 10 15 7 18 -3 3 -9 -2 -12 -12z"/>
<path d="M1690 383 l-255 -258 258 255 c141 140 257 256 257 257 0 8 -23 -15
-260 -254z"/>
<path d="M780 591 c0 -6 4 -13 10 -16 6 -3 7 1 4 9 -7 18 -14 21 -14 7z"/>
<path d="M1010 345 c118 -118 217 -215 220 -215 3 0 -92 97 -210 215 -118 118
-217 215 -220 215 -3 0 92 -97 210 -215z"/>
<path d="M1410 120 c-9 -6 -10 -10 -3 -10 6 0 15 5 18 10 8 12 4 12 -15 0z"/>
<path d="M1293 103 c9 -2 23 -2 30 0 6 3 -1 5 -18 5 -16 0 -22 -2 -12 -5z"/>
<path d="M1353 103 c9 -2 23 -2 30 0 6 3 -1 5 -18 5 -16 0 -22 -2 -12 -5z"/>
</g>
</svg>
