<?xml version="1.0" standalone="no"?>
<!DOCTYPE svg PUBLIC "-//W3C//DTD SVG 20010904//EN"
 "http://www.w3.org/TR/2001/REC-SVG-20010904/DTD/svg10.dtd">
<svg version="1.0" xmlns="http://www.w3.org/2000/svg"
 width="600.000000pt" height="600.000000pt" viewBox="0 0 600.000000 600.000000"
 preserveAspectRatio="xMidYMid meet">

<g transform="translate(0.000000,600.000000) scale(0.100000,-0.100000)"
fill="#000000" stroke="none">
<path d="M722 3399 l3 -2012 1130 -398 c622 -219 1137 -398 1145 -398 8 0 524
179 1145 398 l1130 398 3 2012 2 2011 -2280 0 -2280 0 2 -2011z m3800 1881
l648 0 0 -1565 0 -1565 -2170 0 -2170 0 0 1563 c0 860 3 1567 8 1572 4 4 688
5 1521 1 833 -3 1806 -6 2163 -6z m-2172 -3368 c51 -38 60 -133 18 -187 -42
-54 -148 -51 -190 6 -86 115 57 266 172 181z m841 18 c14 0 19 -7 19 -29 0
-28 -3 -30 -42 -33 -34 -2 -45 -8 -58 -30 -13 -25 -13 -31 0 -55 13 -24 23
-28 63 -31 46 -3 48 -5 45 -30 -3 -26 -6 -27 -64 -30 -53 -2 -66 0 -89 21 -23
19 -29 34 -33 79 -4 55 12 107 40 124 18 11 72 22 86 18 8 -2 22 -4 33 -4z
m-1507 -21 c19 -15 26 -30 26 -55 0 -53 -15 -73 -65 -85 -42 -11 -45 -13 -45
-45 0 -33 -1 -34 -40 -34 l-40 0 0 120 0 120 69 0 c54 0 74 -4 95 -21z m321
-4 c29 -28 31 -54 10 -95 -14 -28 -14 -33 5 -70 11 -21 20 -42 20 -45 0 -3
-16 -5 -35 -5 -30 0 -37 5 -55 40 -11 22 -25 40 -30 40 -6 0 -10 -18 -10 -40
0 -39 -1 -40 -35 -40 l-35 0 0 120 0 120 70 0 c62 0 74 -3 95 -25z m693 -2
c-3 -26 -7 -28 -50 -31 -40 -3 -48 -6 -48 -23 0 -16 7 -19 41 -19 38 0 40 -1
37 -27 -3 -24 -8 -28 -40 -31 -37 -3 -38 -4 -38 -43 0 -38 -1 -39 -35 -39
l-35 0 0 120 0 120 86 0 85 0 -3 -27z m192 -93 l0 -120 -35 0 -35 0 0 120 0
120 35 0 35 0 0 -120z m530 0 l0 -120 -40 0 -40 0 0 120 0 120 40 0 40 0 0
-120z m310 90 c0 -29 -1 -30 -50 -30 -38 0 -50 -4 -50 -15 0 -11 11 -15 40
-15 38 0 40 -2 40 -30 0 -28 -2 -30 -40 -30 -29 0 -40 -4 -40 -15 0 -11 12
-15 50 -15 49 0 50 -1 50 -30 l0 -30 -85 0 -85 0 0 120 0 120 85 0 85 0 0 -30z
m240 -36 l35 -66 3 66 c3 66 3 66 32 66 l30 0 0 -120 0 -120 -37 0 c-36 0 -40
3 -75 68 l-37 67 -1 -67 0 -68 -30 0 -30 0 0 120 0 120 38 0 c35 0 38 -3 72
-66z m430 36 c0 -28 -3 -30 -35 -30 l-35 0 0 -90 0 -90 -35 0 -35 0 0 90 0 90
-35 0 c-32 0 -35 2 -35 30 l0 30 105 0 105 0 0 -30z m749 -455 c-8 -7 -2137
-725 -2151 -725 -15 0 -2139 717 -2146 725 -3 3 964 5 2148 5 1184 0 2151 -2
2149 -5z"/>
<path d="M2503 4915 c-21 -9 -33 -21 -33 -33 0 -29 8 -31 57 -15 52 18 112 12
130 -14 7 -9 13 -31 13 -49 l0 -33 -54 6 c-96 10 -153 -23 -163 -95 -14 -104
102 -160 195 -93 l30 21 14 -22 c14 -20 18 -21 43 -10 20 9 25 17 19 30 -4 9
-10 73 -14 141 -6 123 -6 123 -38 152 -29 26 -39 29 -100 29 -37 -1 -82 -7
-99 -15z m165 -213 c5 -34 -22 -68 -63 -82 -47 -16 -85 6 -85 50 0 41 33 61
95 58 44 -3 50 -6 53 -26z"/>
<path d="M3324 4896 c-67 -67 -33 -137 86 -178 60 -22 65 -25 65 -53 0 -55
-70 -67 -167 -30 -14 6 -18 2 -18 -18 0 -35 21 -48 88 -54 108 -10 172 31 172
109 0 50 -30 81 -98 101 -74 22 -92 34 -92 62 0 43 61 56 148 29 19 -5 22 -3
22 20 0 34 -30 46 -112 46 -55 0 -63 -3 -94 -34z"/>
<path d="M2781 4903 c0 -10 22 -88 48 -173 l47 -155 37 -3 c41 -4 37 -13 78
167 13 58 24 89 29 80 4 -8 18 -59 30 -114 28 -125 33 -135 70 -135 18 0 33 7
38 18 10 18 102 312 102 325 0 4 -15 7 -34 7 l-33 0 -32 -118 c-17 -65 -31
-124 -31 -130 0 -7 -3 -12 -8 -12 -4 0 -21 57 -37 128 l-30 127 -37 3 c-28 2
-37 -1 -41 -15 -3 -10 -18 -72 -33 -137 -15 -66 -30 -114 -32 -106 -3 8 -19
68 -36 134 l-31 121 -32 3 c-27 3 -33 0 -32 -15z"/>
<path d="M3455 4481 c-39 -10 -75 -29 -75 -41 0 -5 24 -6 54 -3 80 8 106 -1
106 -37 0 -16 -9 -52 -20 -80 -15 -38 -17 -50 -6 -50 31 0 74 79 83 150 5 47
4 50 -21 60 -30 11 -76 12 -121 1z"/>
<path d="M2400 4451 c0 -5 28 -31 63 -57 72 -54 215 -125 302 -149 83 -23 286
-31 383 -15 143 23 342 111 342 152 0 10 -2 18 -4 18 -3 0 -44 -13 -93 -29
-146 -49 -236 -64 -378 -64 -193 -1 -367 39 -527 119 -70 35 -88 40 -88 25z"/>
<path d="M3150 3520 c0 -179 0 -181 25 -205 24 -25 65 -32 99 -19 25 9 21 70
-4 77 -19 5 -20 14 -20 166 l0 161 -50 0 -50 0 0 -180z"/>
<path d="M3340 3516 l0 -185 26 -20 c26 -21 67 -27 98 -15 10 4 16 18 16 40 0
27 -4 34 -20 34 -19 0 -20 7 -20 165 l0 165 -50 0 -50 0 0 -184z"/>
<path d="M2341 3493 c27 -98 49 -182 49 -186 0 -4 26 -7 57 -5 l57 3 21 100
c12 55 24 106 26 114 3 8 16 -38 29 -102 l24 -117 56 0 56 0 47 178 c26 97 47
180 47 185 0 4 -24 7 -53 7 l-53 0 -19 -115 c-10 -63 -22 -115 -25 -115 -4 0
-10 19 -14 43 -4 23 -14 72 -22 110 l-16 67 -53 0 -54 0 -11 -57 c-25 -122
-38 -167 -43 -153 -5 13 -37 199 -37 214 0 3 -26 6 -59 6 l-58 0 48 -177z"/>
<path d="M2895 3558 c-79 -62 -70 -208 15 -250 40 -20 88 -23 143 -7 32 9 37
14 37 40 l0 30 -59 -7 c-53 -6 -61 -4 -82 17 l-24 24 82 3 82 3 7 34 c9 48
-12 102 -46 120 -44 23 -122 19 -155 -7z m109 -61 c14 -22 4 -29 -40 -25 l-39
3 23 23 c25 25 40 25 56 -1z"/>
<path d="M3510 3440 l0 -40 90 0 90 0 0 40 0 40 -90 0 -90 0 0 -40z"/>
<path d="M2738 3114 c-21 -45 20 -85 69 -68 20 7 29 17 31 37 5 38 -14 57 -54
57 -27 0 -37 -5 -46 -26z"/>
<path d="M2400 2930 l0 -200 50 0 49 0 3 103 3 102 30 0 30 0 3 -102 3 -103
49 0 50 0 0 118 c0 150 -8 166 -84 160 -28 -3 -59 -8 -68 -12 -16 -7 -18 -1
-18 63 l0 71 -50 0 -50 0 0 -200z"/>
<path d="M4370 3066 l0 -63 -50 5 c-84 8 -130 -43 -130 -142 0 -89 37 -136
108 -136 24 0 52 5 63 10 13 7 19 7 19 0 0 -5 20 -10 45 -10 l45 0 0 200 0
200 -50 0 -50 0 0 -64z m0 -197 l0 -69 -30 0 c-24 0 -33 6 -40 26 -24 63 4
129 49 117 19 -5 21 -13 21 -74z"/>
<path d="M1563 2922 c-35 -98 -63 -182 -63 -185 0 -4 25 -7 55 -7 54 0 54 0
61 35 l6 35 59 0 c58 0 59 0 67 -32 8 -32 10 -33 65 -36 31 -2 57 1 56 5 0 4
-28 87 -62 183 l-62 175 -60 3 -60 3 -62 -179z m124 -40 c-16 -2 -31 -1 -34 1
-4 5 11 74 24 107 3 9 12 -11 22 -45 l16 -60 -28 -3z"/>
<path d="M2924 3044 c-4 -25 -14 -38 -30 -44 -31 -12 -34 -60 -5 -60 17 0 19
-9 22 -86 5 -107 19 -124 110 -124 l59 0 0 35 c0 30 -3 35 -24 35 -36 0 -47
22 -44 82 3 52 4 53 36 56 29 3 32 6 32 38 0 32 -2 34 -35 34 -33 0 -35 2 -35
35 0 34 -1 35 -40 35 -37 0 -39 -2 -46 -36z"/>
<path d="M3704 3053 c-10 -49 -13 -53 -34 -53 -16 0 -20 -7 -20 -30 0 -23 5
-30 19 -30 17 0 19 -9 22 -86 5 -107 19 -124 110 -124 l59 0 0 35 c0 30 -3 35
-23 35 -36 0 -47 19 -47 82 l0 58 35 0 c33 0 35 2 35 35 0 33 -2 35 -35 35
-33 0 -35 2 -35 35 0 34 -1 35 -40 35 -35 0 -40 -3 -46 -27z"/>
<path d="M1910 2870 l0 -140 50 0 49 0 3 93 3 92 43 3 42 3 0 45 c0 40 -2 44
-24 44 -13 0 -35 -9 -49 -20 l-26 -20 -6 20 c-5 16 -15 20 -46 20 l-39 0 0
-140z"/>
<path d="M2184 2991 c-71 -43 -79 -175 -14 -233 26 -24 39 -28 89 -28 79 0 91
6 91 44 0 31 -1 31 -43 28 -55 -5 -77 15 -77 68 0 54 22 73 77 67 43 -5 43 -4
43 28 0 39 -12 45 -83 45 -33 0 -63 -7 -83 -19z"/>
<path d="M2740 2870 l0 -140 50 0 50 0 0 140 0 140 -50 0 -50 0 0 -140z"/>
<path d="M3155 2977 c-39 -39 -52 -95 -35 -157 24 -89 101 -118 223 -84 12 4
17 15 17 38 l0 34 -45 -10 c-33 -7 -51 -6 -71 4 -53 25 -40 37 43 40 l78 3 3
53 c3 47 0 56 -27 82 -26 27 -36 30 -91 30 -57 0 -65 -3 -95 -33z m109 -33 c9
-3 16 -15 16 -25 0 -15 -7 -19 -35 -19 -39 0 -48 21 -17 39 21 13 17 12 36 5z"/>
<path d="M3467 2990 c-55 -44 -73 -123 -43 -195 19 -44 61 -65 130 -65 74 0
86 6 86 45 l0 32 -49 -5 c-42 -4 -50 -1 -65 19 -40 58 -4 124 65 117 l40 -4
-3 36 -3 35 -66 3 c-54 2 -70 -1 -92 -18z"/>
<path d="M3941 2984 c-60 -50 -66 -168 -11 -223 42 -42 104 -50 193 -25 12 4
17 15 17 38 l0 34 -45 -10 c-33 -7 -51 -6 -71 4 -53 25 -40 37 43 40 l78 3 0
59 c-1 51 -4 61 -28 82 -41 35 -133 34 -176 -2z m103 -40 c9 -3 16 -15 16 -25
0 -15 -7 -19 -35 -19 -39 0 -48 21 -17 39 21 13 17 12 36 5z"/>
<path d="M2247 1862 c-20 -22 -22 -83 -5 -100 7 -7 21 -12 33 -12 31 0 45 19
45 61 0 28 -6 42 -22 53 -28 20 -31 20 -51 -2z"/>
<path d="M1600 1845 c0 -20 4 -26 18 -23 9 2 17 12 17 23 0 11 -8 21 -17 23
-14 3 -18 -3 -18 -23z"/>
<path d="M1910 1850 c0 -33 7 -37 35 -16 16 12 17 16 6 30 -22 26 -41 19 -41
-14z"/>
</g>
</svg>
